<svg width="216" height="216" viewBox="0 0 216 216" fill="none" xmlns="http://www.w3.org/2000/svg">
<path d="M109.821 215.018L8.32031 73.0176H35.249L108.872 176.017L182.494 73.0176H211.321L109.821 215.018Z" fill="white"/>
<path d="M109.219 170.722L40.8047 73H58.9551L108.582 143.887L158.208 73H177.632L109.219 170.722Z" fill="#6E6E6E"/>
<path d="M108.744 137.484L63.6094 73.0156H75.5811L108.318 119.777L141.055 73.0156H153.878L108.744 137.484Z" fill="#404040"/>
<path d="M27.9043 59H16.5123L0.000312477 16.312H10.3683L22.2083 49.144L33.9843 16.312H44.3523L27.9043 59ZM85.1023 59H74.7343L72.1103 51.768H53.8063L51.1183 59H40.7503L57.2623 16.312H68.6543L85.1023 59ZM69.6143 43.768L62.9583 25.4L56.3023 43.768H69.6143ZM98.1323 59H89.0443V16.312H109.012C118.292 16.312 123.348 22.584 123.348 30.072C123.348 37.496 118.228 43.832 109.012 43.832H98.1323V59ZM107.796 35.832C111.38 35.832 114.068 33.592 114.068 30.072C114.068 26.488 111.38 24.312 107.796 24.312H98.1323V35.832H107.796ZM149.206 59.768C136.342 59.768 126.934 50.552 126.934 37.688C126.934 24.824 136.342 15.608 149.206 15.608C162.134 15.608 171.542 24.824 171.542 37.688C171.542 50.552 162.134 59.768 149.206 59.768ZM149.206 51.704C157.078 51.704 162.198 45.624 162.198 37.688C162.198 29.688 157.078 23.672 149.206 23.672C141.334 23.672 136.278 29.688 136.278 37.688C136.278 45.624 141.334 51.704 149.206 51.704ZM212.479 59H202.047L193.663 43.832H187.007V59H177.919V16.312H197.887C206.783 16.312 212.223 22.136 212.223 30.072C212.223 37.624 207.487 41.656 202.879 42.744L212.479 59ZM196.543 35.832C200.191 35.832 202.943 33.656 202.943 30.072C202.943 26.488 200.191 24.312 196.543 24.312H187.007V35.832H196.543Z" fill="white"/>
</svg>
